Coordinates
version=1
nRows=22
nColumns=24
inDegrees=yes

Units are S.I. units (second, meters, Newtons, ...)
Angles are in degrees.

endheader
time	pelvis_tilt	pelvis_list	pelvis_rotation	pelvis_tx	pelvis_ty	pelvis_tz	hip_flexion_r	hip_adduction_r	hip_rotation_r	knee_angle_r	ankle_angle_r	subtalar_angle_r	mtp_angle_r	hip_flexion_l	hip_adduction_l	hip_rotation_l	knee_angle_l	ankle_angle_l	subtalar_angle_l	mtp_angle_l	lumbar_extension	lumbar_bending	lumbar_rotation
      0.80433333	     -3.65067720	     -2.69889480	      0.15738031	     -0.34162404	      0.99595119	      0.33172684	     16.40044644	      6.47304631	      0.70727640	    -23.47201363	     11.06475884	    -12.32675905	      2.30915173	     15.87487981	     -4.22023957	     -2.57775646	    -70.92602531	     -7.27285868	     -7.08735525	      7.64186148	     -9.19147508	      9.63186258	     -1.79180565
      0.80850000	     -3.58939650	     -2.57591271	      0.14658869	     -0.33644410	      0.99708753	      0.33204966	     15.79078028	      6.39341946	      0.87676390	    -23.03729675	     11.07810897	    -12.46149288	      2.27313388	     16.42106372	     -4.17567574	     -2.70557856	    -70.92722674	     -6.85993982	     -7.54937362	      7.46190139	     -9.29029947	      9.39444555	     -1.46486811
      0.81266667	     -3.51158582	     -2.45019829	      0.12771420	     -0.33125018	      0.99823418	      0.33236910	     15.15599042	      6.30943378	      1.04904315	    -22.58697992	     11.08697651	    -12.58366610	      2.23392070	     16.93523013	     -4.12775892	     -2.84226813	    -70.87231151	     -6.44939528	     -8.00196777	      7.26731777	     -9.40479887	      9.15716052	     -1.13449494
      0.81683333	     -3.42810182	     -2.32064276	      0.10584682	     -0.32604891	      0.99938111	      0.33268313	     14.50868197	      6.21908919	      1.21759825	    -22.12307752	     11.08664367	    -12.70969858	      2.19429676	     17.42924873	     -4.07459331	     -2.98619650	    -70.75565421	     -6.04168660	     -8.45500642	      7.07642347	     -9.52555788	      8.91111539	     -0.82228769
      0.82100000	     -3.37308342	     -2.18390753	      0.07500875	     -0.32085606	      1.00045476	      0.33299461	     13.89314201	      6.11970697	      1.39248532	    -21.65965139	     11.08163132	    -12.83646976	      2.14932969	     17.94372278	     -4.01117497	     -3.13441019	    -70.58983270	     -5.63471406	     -8.88650827	      6.86191124	     -9.61060302	      8.66030298	     -0.48724117
      0.82516667	     -3.28362642	     -2.03079852	      0.04357786	     -0.31563395	      1.00157731	      0.33328083	     13.23409178	      5.99615434	      1.55147651	    -21.18563994	     11.08429827	    -12.93405363	      2.10435659	     18.39899100	     -3.92531432	     -3.28898871	    -70.35322090	     -5.22094172	     -9.29528923	      6.64907333	     -9.72734000	      8.39705596	     -0.19755886
      0.82933333	     -3.22784205	     -1.90106632	      0.01381837	     -0.31042728	      1.00261498	      0.33356285	     12.60173814	      5.89803198	      1.72321285	    -20.68433414	     11.03342189	    -13.08120557	      1.48758793	     18.89016552	     -3.86262292	     -3.43168715	    -70.09225067	     -4.71789258	     -9.62298563	      3.57957338	     -9.80421817	      8.16799916	      0.07485727
      0.83350000	     -3.12893067	     -1.72914234	     -0.02218488	     -0.30521244	      1.00368271	      0.33380798	     11.93980535	      5.74207517	      1.84942761	    -20.22571085	     11.08490736	    -13.09903576	      1.47308380	     19.30782812	     -3.74555932	     -3.58582678	    -69.74586364	     -4.30938994	     -9.99782973	      3.55981738	     -9.93030108	      7.88628988	      0.33971904
      0.83766667	     -3.06751652	     -1.56497028	     -0.05646520	     -0.29999637	      1.00465697	      0.33404444	     11.31339971	      5.59303345	      1.98015702	    -19.75197096	     11.08888672	    -13.16232878	      1.45253533	     19.75773706	     -3.63543079	     -3.73380740	    -69.35768028	     -3.89319370	    -10.34171904	      3.52144706	    -10.01166635	      7.61706669	      0.62104891
      0.84183333	     -2.99715314	     -1.40223089	     -0.09012908	     -0.29477732	      1.00562630	      0.33426177	     10.67193964	      5.44115023	      2.10233951	    -19.26312901	     11.08144932	    -13.22645507	      1.42849758	     20.18310938	     -3.52118011	     -3.87552836	    -68.91421682	     -3.46935409	    -10.64484934	      3.46692804	    -10.09976167	      7.35264191	      0.88625045
      0.84600000	     -2.92496306	     -1.24719045	     -0.11827538	     -0.28955756	      1.00655098	      0.33445686	     10.02636243	      5.29355307	      2.21370463	    -18.76804000	     11.07367980	    -13.28368905	      1.40118787	     20.59539468	     -3.41031467	     -4.00533177	    -68.42589658	     -3.03917676	    -10.90679955	      3.39928353	    -10.19243259	      7.10233236	      1.13317360
      0.85016667	     -2.87120052	     -1.08164367	     -0.14709311	     -0.28434032	      1.00742731	      0.33462687	      9.40345528	      5.12988820	      2.31435956	    -18.27613566	     11.06321175	    -13.33735775	      1.36937535	     21.01173430	     -3.27919931	     -4.12951891	    -67.88009620	     -2.61219624	    -11.13958355	      3.31339628	    -10.25709327	      6.84122374	      1.37557660
      0.85433333	     -2.82271515	     -0.91415820	     -0.16712105	     -0.27914974	      1.00824149	      0.33474936	      8.79511056	      4.95662106	      2.39342152	    -17.79768280	     11.04350764	    -13.35447588	      1.34467834	     21.42351208	     -3.13014414	     -4.22559136	    -67.28834718	     -2.16512271	    -11.33600841	      3.24928788	    -10.32698503	      6.60798226	      1.54912048
      0.85850000	     -2.76291055	     -0.77250662	     -0.18665635	     -0.27392981	      1.00902228	      0.33489548	      8.16081785	      4.81308896	      2.46872022	    -17.28996336	     11.04056521	    -13.41566443	      1.30691473	     21.81081385	     -3.02078563	     -4.33399451	    -66.65502333	     -1.74838904	    -11.49139050	      3.14201211	    -10.39311398	      6.35955073	      1.80783042
      0.86266667	     -2.70418375	     -0.60985075	     -0.19909468	     -0.26873351	      1.00977003	      0.33497954	      7.54037969	      4.63830524	      2.52132247	    -16.80525489	     11.02408576	    -13.43521370	      1.27414968	     22.18150787	     -2.86675195	     -4.41504635	    -65.96154433	     -1.31500340	    -11.60636128	      3.05044386	    -10.46211769	      6.13096810	      1.98094295
      0.86683333	     -2.69876573	     -0.45652042	     -0.21183108	     -0.26353887	      1.01038469	      0.33503903	      6.98737139	      4.46857805	      2.54933276	    -16.33937694	     10.99896026	    -13.42642388	      1.25104085	     22.60089659	     -2.71578986	     -4.48430445	    -65.23129208	     -0.88277573	    -11.70714397	      2.98977412	    -10.46471594	      5.91384552	      2.11469390
      0.87100000	     -2.63738199	     -0.32630496	     -0.21476531	     -0.25833266	      1.01103761	      0.33511198	      6.35094142	      4.32771799	      2.59470615	    -15.82326189	     11.00222936	    -13.47012344	      1.21134560	     22.94520922	     -2.59271571	     -4.54516848	    -64.45329697	     -0.48630473	    -11.74938793	      2.87498901	    -10.54185138	      5.68626920	      2.34378083
      0.87516667	     -2.59118888	     -0.18846922	     -0.21627896	     -0.25313856	      1.01162866	      0.33513661	      5.74442412	      4.17102248	      2.61210211	    -15.33289093	     10.98231101	    -13.47633750	      1.17227498	     23.28886264	     -2.44613640	     -4.58793354	    -63.62200725	     -0.07942372	    -11.76962189	      2.76321402	    -10.59751149	      5.48321938	      2.50552656
      0.87933333	     -2.59818140	     -0.04574894	     -0.21807713	     -0.24795756	      1.01209269	      0.33512026	      5.21387881	      4.00358279	      2.60194788	    -14.87764878	     10.93989249	    -13.44538983	      1.14942929	     23.67624395	     -2.28106137	     -4.61393851	    -62.74409865	      0.31875883	    -11.77517770	      2.70422170	    -10.58495396	      5.29648943	      2.60836723
      0.88350000	     -2.53377416	      0.06021056	     -0.21288932	     -0.24276292	      1.01260208	      0.33512638	      4.57945106	      3.88024677	      2.61662358	    -14.36671483	     10.93557823	    -13.46177261	      1.10963590	     23.97388530	     -2.16058760	     -4.63059279	    -61.82863148	      0.69990914	    -11.72072115	      2.58847374	    -10.67516811	      5.11903416	      2.80225341
      0.88766667	     -2.50615007	      0.18385383	     -0.20562179	     -0.23756297	      1.01301711	      0.33508304	      4.00195756	      3.72996414	      2.58530294	    -13.89120481	     10.91407527	    -13.43686274	      1.07537247	     24.29119428	     -2.00823345	     -4.63815005	    -60.85661913	      1.05780295	    -11.66546694	      2.48768038	    -10.70195912	      4.93683730	      2.93099704
      0.89183333	     -2.51383249	      0.31402553	     -0.20189165	     -0.23236724	      1.01336181	      0.33501089	      3.47380472	      3.56825289	      2.54299550	    -13.43721439	     10.86057221	    -13.37534541	      1.05479819	     24.62473883	     -1.83537259	     -4.62566281	    -59.82395000	      1.39684667	    -11.60403928	      2.43150117	    -10.68901460	      4.76756003	      3.02560312
